<?xml version="1.0" encoding="UTF-8"?>
<!DOCTYPE svg PUBLIC "-//W3C//DTD SVG 1.1//EN" "http://www.w3.org/Graphics/SVG/1.1/DTD/svg11.dtd">
<!-- Creator: CorelDRAW 2018 (64-Bit) -->
<svg xmlns="http://www.w3.org/2000/svg" xml:space="preserve" width="62.8169mm" height="57.2307mm" version="1.1" style="shape-rendering:geometricPrecision; text-rendering:geometricPrecision; image-rendering:optimizeQuality; fill-rule:evenodd; clip-rule:evenodd"
viewBox="0 0 781.63 712.12"
 xmlns:xlink="http://www.w3.org/1999/xlink">
 <defs>
  <style type="text/css">
   <![CDATA[
    .str0 {stroke:#332C2B;stroke-width:2.49;stroke-miterlimit:22.9256}
    .fil2 {fill:#332C2B}
    .fil7 {fill:#E62129}
    .fil5 {fill:black}
    .fil1 {fill:#0B8EAC}
    .fil6 {fill:#1AACCE}
    .fil3 {fill:#F5C711}
    .fil0 {fill:#FAAC26}
    .fil4 {fill:#FEFEFD}
   ]]>
  </style>
 </defs>
 <g id="图层_x0020_1">
  <metadata id="CorelCorpID_0Corel-Layer"/>
  <g id="_2902987593536">
   <path class="fil0" d="M245 473.77c-2.85,8.1 -5.22,17.03 -6.78,26.78 84.74,85.94 198.44,122.43 227.05,130.58 -12.99,10.48 -28.65,18.99 -44.5,25.88 -99.36,-28.6 -158.99,-71.55 -179.48,-88.17 4.94,21.26 13.83,44.65 28.14,70.13l0 0c28.06,21.48 58.17,34.13 80.04,41.24 31.2,-8.22 112.34,-28.35 139.15,-75.58l0 0c-0.34,0.6 -0.68,1.19 -1.03,1.76 -33.32,-10.77 -133.79,-47.58 -235.23,-127.7l-7.37 -4.91zm24.51 165.33c0.6,1.07 1.2,2.13 1.82,3.2 -0.61,-1.07 -1.22,-2.14 -1.82,-3.2z"/>
   <path class="fil1" d="M-0 433.07c0,0 35.85,-4.16 77.47,-16.85 41.62,-12.69 98.78,-19.45 133.21,25 34.43,44.46 42.07,70.99 48.27,115.24 0,0 -81.95,25.92 -163.62,-22.08 0,0 -46.01,-19.41 -85.68,-87.17 0,0 -7.07,-11.05 -9.66,-14.15z"/>
   <path class="fil2" d="M349.48 680.2c-21.87,-7.11 -51.98,-19.76 -80.04,-41.24 1.66,2.96 3.37,5.93 5.18,8.94l17.79 23.12c2.48,3.31 3.59,5.64 3.15,10.31 0,0 -4.35,15.43 -12.97,30.79 0,0 32.01,-22.15 60.72,-30.26 1.74,-0.49 3.81,-1.05 6.17,-1.67z"/>
   <path class="fil2" d="M465.28 631.13c-28.61,-8.15 -142.32,-44.64 -227.06,-130.58 -3.12,19.51 -2.98,42.3 3.05,68.26 20.47,16.6 80.11,59.58 179.51,88.19 15.85,-6.89 31.51,-15.39 44.5,-25.88z"/>
   <path class="fil3" d="M518.27 106.3c141.89,0 259.77,105.81 263.28,236.33 3.51,130.52 -108.67,236.34 -250.56,236.34 -141.89,0 -259.77,-105.81 -263.28,-236.34 -3.51,-130.52 108.67,-236.33 250.56,-236.33z"/>
   <path class="fil2" d="M282.32 415.99l-0.17 0.15 -0 0 -0.2 0.17 -0.22 0.2 -0.19 0.17 -0.06 0.05 -0.27 0.24 -0.29 0.27 -0 0 -0.31 0.29 -0.01 0.01 -0.33 0.31 -0.36 0.34 -0.04 0.04c-0.22,0.21 -0.45,0.43 -0.69,0.66l-0.07 0.07c-7.23,7.07 -23.54,25.27 -33.84,54.04l-0 0.01c103.83,84.06 208.24,122.35 242.34,133.37 3.21,-5.3 5.96,-11.82 7.82,-18.49 0.78,-3.1 1.34,-6.29 1.66,-9.58 0.04,-0.46 0.04,-0.92 0.06,-1.38 -1.5,-0.18 -3.01,-0.38 -4.5,-0.58l-0.04 -0c-0.82,-0.11 -1.64,-0.23 -2.46,-0.35l-0.04 -0.01 -0.08 -0.01 -0.04 -0.01 -0.04 -0.01 -0.04 -0.01 -0.05 -0.01 -0.04 -0.01 -0.04 -0.01c-0.86,-0.13 -1.72,-0.26 -2.57,-0.39l-0.04 -0.01 -0.05 -0.01 -0.04 -0.01 -0.04 -0.01c-0.89,-0.14 -1.77,-0.28 -2.66,-0.43l-0 -0 -0.04 -0.01 -0.05 -0.01c-1.06,-0.18 -2.12,-0.37 -3.18,-0.56l-0.05 -0.01 -0.06 -0.01 -0.06 -0.01 -0.06 -0.01c-1.2,-0.22 -2.39,-0.44 -3.58,-0.67l-0.06 -0.01 -0.06 -0.01 -0.05 -0.01 -0 0c-1.04,-0.2 -2.09,-0.41 -3.13,-0.62l-0.04 -0.01 -0.04 -0.01 -0.04 -0.01c-0.86,-0.18 -1.72,-0.36 -2.58,-0.55l-0.04 -0.01 -0.04 -0.01 -0.04 -0.01 -0.04 -0.01c-0.81,-0.18 -1.61,-0.36 -2.42,-0.54l-0.04 -0.01 -0.04 -0.01 -0.04 -0.01 -0.04 -0.01 -0.04 -0.01 -0.04 -0.01c-0.89,-0.2 -1.78,-0.4 -2.67,-0.62l-0.07 -0.02c-1.54,-0.36 -3.07,-0.74 -4.59,-1.14l-0.04 -0.01c-0.78,-0.2 -1.55,-0.41 -2.32,-0.62l-0.04 -0.01 -0.04 -0.01 -0.04 -0.01 -0.04 -0.01 -0.04 -0.01 -0.04 -0.01 -0.04 -0.01 -0.04 -0.01 -0.04 -0.01 -0.04 -0.01 -0.04 -0.01 -0.04 -0.01 -0.04 -0.01 -0.04 -0.01c-0.76,-0.21 -1.53,-0.41 -2.29,-0.62l-0.04 -0.01 -0.04 -0.01 -0.04 -0.01c-0.88,-0.24 -1.76,-0.49 -2.63,-0.74l-0.04 -0.01 -0.04 -0.01 -0.04 -0.01c-0.76,-0.22 -1.52,-0.45 -2.28,-0.67l-0.04 -0.01 -0.04 -0.01 -0.04 -0.01 -0.04 -0.01 -0.04 -0.01 -0.04 -0.01 -0.07 -0.02 -0.07 -0.02c-1.37,-0.41 -2.73,-0.83 -4.09,-1.26l-0.07 -0.02 -0.05 -0.01 -0.05 -0.01c-0.93,-0.29 -1.87,-0.59 -2.8,-0.9l-0.04 -0.01 -0.04 -0.01c-0.83,-0.27 -1.65,-0.55 -2.48,-0.84l-0.04 -0.01 -0.04 -0.01 -0.04 -0.01 -0.04 -0.01 -0.04 -0.01 -0.04 -0.01 -0.04 -0.01 -0.04 -0.01 -0.04 -0.01 -0.04 -0.01 -0.04 -0.01c-0.69,-0.24 -1.37,-0.47 -2.05,-0.71l-0.04 -0.01 -0.04 -0.01 -0.04 -0.01 -0.04 -0.02c-0.89,-0.31 -1.77,-0.62 -2.66,-0.94l-0.04 -0.02 -0.04 -0.02 -0.04 -0.01c-0.74,-0.27 -1.48,-0.55 -2.22,-0.82l-0.04 -0.01 -0.04 -0.01 -0.04 -0.01 -0.04 -0.01 -0.04 -0.01 -0.04 -0.01 -0.07 -0.03c-1.47,-0.55 -2.93,-1.11 -4.38,-1.68l-0.07 -0.03 -0.07 -0.03 -0.03 -0.01 -0.03 -0.01 -0.03 -0.01 -0.04 -0.01c-0.67,-0.27 -1.34,-0.53 -2,-0.8l-0.04 -0.01 -0.03 -0.01 -0.04 -0.01 -0.04 -0.02c-0.91,-0.37 -1.81,-0.74 -2.72,-1.12l-0.04 -0.02 -0.03 -0.01 -0.03 -0.01 -0.03 -0.01 -0.03 -0.01 -0.03 -0.01 -0.03 -0.01 -0.03 -0.01c-0.62,-0.26 -1.24,-0.52 -1.85,-0.79l-0.03 -0.01 -0.03 -0.01 -0.04 -0.02 -0.04 -0.02 -0.04 -0.02c-0.87,-0.37 -1.74,-0.74 -2.61,-1.12l-0.04 -0.02 -0.01 -0c-1.37,-0.6 -2.73,-1.22 -4.09,-1.85l-0.02 -0.01 -0.04 -0.02 -0.04 -0.02c-0.82,-0.38 -1.63,-0.76 -2.44,-1.15l-0.04 -0.02 -0.04 -0.02 -0.04 -0.02 -0.04 -0.02 -0.04 -0.02 -0.04 -0.02 -0.03 -0.01 -0.03 -0.01 -0.03 -0.01 -0.03 -0.01 -0.03 -0.01 -0.06 -0.03 -0.03 -0.01 -0.03 -0.01c-0.55,-0.27 -1.11,-0.53 -1.66,-0.8l-0.03 -0.01 -0.03 -0.01 -0.04 -0.02 -0.04 -0.02c-0.88,-0.43 -1.76,-0.86 -2.63,-1.29l-0.04 -0.02 -0.04 -0.02 -0.03 -0.01c-0.59,-0.29 -1.17,-0.59 -1.76,-0.89l-0.03 -0.01 -0.03 -0.01 -0.03 -0.01 -0.03 -0.02 -0.08 -0.04 -0.08 -0.04 -0.08 -0.04 -0.08 -0.04 -0.08 -0.04c-1.45,-0.74 -2.89,-1.49 -4.32,-2.26l-0.08 -0.04 -0.08 -0.04 -0.08 -0.04 -0.03 -0.01 -0.03 -0.01 -0.03 -0.01 -0.03 -0.01 -0.03 -0.01 -0.05 -0.03 -0.03 -0.01 -0.03 -0.01c-0.48,-0.26 -0.97,-0.51 -1.45,-0.78l-0.03 -0.01 -0.03 -0.01 -0.04 -0.02c-0.86,-0.47 -1.73,-0.95 -2.58,-1.43l-0.04 -0.02 -0.04 -0.02 -0.04 -0.02 -0.04 -0.02 -0.03 -0.01 -0.03 -0.01 -0.03 -0.01 -0.03 -0.02 -0.03 -0.01 -0.03 -0.02 -0.08 -0.04 -0.03 -0.02c-0.45,-0.26 -0.91,-0.51 -1.36,-0.77l-0.03 -0.01 -0.03 -0.02 -0.03 -0.01 -0.03 -0.02 -0.04 -0.02 -0.04 -0.03 -0.04 -0.02c-0.87,-0.5 -1.74,-0.99 -2.6,-1.5l-0.04 -0.03 -0.04 -0.03 -0.04 -0.03 -0.01 -0.01c-0.13,-0.07 -0.26,-0.15 -0.39,-0.23l-0.01 -0.01 -0.02 -0.01 -0.01 -0.01 -0.01 -0.01 -0.01 -0.01 -0.01 -0.01 -0.01 -0.01 -0.01 -0.01 -0.01 -0.01 -0.01 -0.01 -0.01 -0.01 -0.01 -0.01 -0.01 -0.01 -0.01 -0.01 -0.01 -0.01 -0.01 -0.01 -0.01 -0.01 -0.01 -0.01 -0.01 -0.01 -0.01 -0.01 -0.01 -0.01 -0.01 -0.01 -0.01 -0.01 -0.01 -0.01 -0.01 -0.01 -0.01 -0.01 -0.01 -0.01 -0.01 -0.01 -0.01 -0.01 -0.09 -0.05 -0.09 -0.06c-0.44,-0.26 -0.87,-0.52 -1.3,-0.78l-0.09 -0.06 -0.09 -0.06c-1.3,-0.78 -2.59,-1.57 -3.88,-2.37l-0.09 -0.06 -0.09 -0.06 -0.09 -0.06 -0.09 -0.06 -0.02 -0.01 -0.02 -0.01 -0.02 -0.01 -0.02 -0.01 -0.02 -0.01 -0.06 -0.04 -0.02 -0.01c-0.37,-0.23 -0.74,-0.47 -1.11,-0.7l-0.02 -0.01 -0.02 -0.01 -0.04 -0.03 -0.04 -0.03 -0.05 -0.03c-0.87,-0.55 -1.74,-1.11 -2.61,-1.68l-0.04 -0.03 -0.04 -0.03 -0.04 -0.03 -0.02 -0.01 -0.02 -0.01 -0.02 -0.01 -0.06 -0.04 -0.02 -0.01c-0.31,-0.2 -0.61,-0.4 -0.92,-0.6l-0.02 -0.01 -0.04 -0.03 -0.02 -0.01 -0.02 -0.01 -0.02 -0.01 -0.02 -0.01 -0.02 -0.01 -0.02 -0.01 -0.02 -0.01 -0.02 -0.01 -0.02 -0.01 -0.02 -0.01 -0.15 -0.1 -0.15 -0.1c-1.33,-0.88 -2.65,-1.78 -3.96,-2.68l-0.15 -0.1 -0.15 -0.1 -0.15 -0.1 -0.15 -0.1 -0.15 -0.1 -0.15 -0.1c-1.4,-0.98 -2.8,-1.96 -4.18,-2.96l-1.13 -0.82 -0.05 -0.03 -0.05 -0.03c-0.93,-0.68 -1.86,-1.36 -2.77,-2.06l-0.04 -0.03 -0.66 -0.5 -0.09 -0.07 -0.09 -0.07 -0.56 -0.43 -0.09 -0.07 -0.09 -0.07 -0.09 -0.07 -0.09 -0.07 -0.09 -0.07c-1.18,-0.9 -2.35,-1.82 -3.51,-2.74l-0.09 -0.07 -0.09 -0.07 -0.09 -0.07 -0.09 -0.07 -0.09 -0.07 -0.09 -0.07 -0.37 -0.29 -0.09 -0.07 -0.09 -0.07 -0.09 -0.07 -0.55 -0.44 -0.05 -0.04c-0.88,-0.71 -1.76,-1.43 -2.63,-2.16l-0.04 -0.04 -0.05 -0.04 -0.04 -0.04 -0.04 -0.04 -0.04 -0.04 -0.85 -0.71 -0.14 -0.12c-1.24,-1.04 -2.47,-2.09 -3.69,-3.16l-0.14 -0.12 -0.14 -0.12 -0.14 -0.12 -0.14 -0.12 -0.14 -0.12 -0.14 -0.12 -0.14 -0.12c-1.16,-1.03 -2.32,-2.06 -3.47,-3.11l-0.14 -0.13 -0.14 -0.13 -0.14 -0.13 -0.14 -0.13 -0.14 -0.13 -0.54 -0.49c-0.92,-0.85 -1.83,-1.71 -2.74,-2.57l-0.04 -0.04 -0.04 -0.04 -0.04 -0.04 -0.38 -0.37 -0.14 -0.13 -0.14 -0.13 -0.14 -0.13 -0.14 -0.13 -0.14 -0.13 -0.14 -0.13 -0.14 -0.13c-1.11,-1.07 -2.2,-2.15 -3.28,-3.24l-0.14 -0.14 -0.13 -0.14 -0.14 -0.14 -0.14 -0.14 -0.13 -0.14 -0.13 -0.14 -0.14 -0.14c-1.08,-1.09 -2.15,-2.2 -3.2,-3.31l-0.13 -0.14 -0.13 -0.14 -0.41 -0.44c-1.21,-1.28 -2.4,-2.57 -3.58,-3.87l-0.18 -0.2 -0.18 -0.2 -0.18 -0.2c-1.06,-1.17 -2.1,-2.36 -3.14,-3.55l-0.17 -0.2 -0.17 -0.2 -0.17 -0.2 -0.17 -0.2 -0.17 -0.2c-1.03,-1.2 -2.04,-2.41 -3.04,-3.62l-0.16 -0.2 -0.12 -0.15 -0.12 -0.15 -0.13 -0.15 -0.12 -0.15 -0.13 -0.15c-0.99,-1.22 -1.98,-2.45 -2.95,-3.68l-0.12 -0.15 -0.12 -0.15 -0.12 -0.16 -0.12 -0.15 -0.12 -0.15 -0.12 -0.16 -0.12 -0.16c-0.92,-1.19 -1.83,-2.39 -2.73,-3.59l-0.12 -0.16 -0.12 -0.16 -0.12 -0.16 -0.12 -0.16 -0.12 -0.16 -0.15 -0.2 -0.04 -0.05c-0.9,-1.22 -1.79,-2.45 -2.67,-3.68l-0.8 -1.13c-0.88,-1.25 -1.75,-2.51 -2.6,-3.78l-0.78 -1.17c-0.85,-1.27 -1.68,-2.56 -2.51,-3.85l-0.57 -0.9c-0.9,-1.43 -1.79,-2.86 -2.66,-4.31l-0.02 -0.03 -0.38 -0.63c-4.01,-6.71 -7.69,-13.61 -11.01,-20.68l-0.01 -0.02 -0.11 -0.24c-0.68,-1.45 -1.34,-2.9 -1.99,-4.36l-0.11 -0.24 -0.11 -0.24 -0.11 -0.24 -0.11 -0.25c-0.71,-1.63 -1.4,-3.26 -2.08,-4.91l-0.1 -0.25c-0.67,-1.64 -1.33,-3.3 -1.96,-4.96l-0.01 -0.02z"/>
   <path class="fil4" d="M424.23 265.28c60.17,-13.17 69.9,86.36 13.3,99.5 -58.91,13.67 -71.84,-86.68 -13.3,-99.5zm20.51 -41.63c-126.62,28.21 -95.43,217.29 18.11,194.04 49.58,-10.15 82.49,-58.1 80.88,-107.95 -1.67,-51.48 -45.93,-97.91 -98.99,-86.08z"/>
   <path class="fil4" d="M655.54 285.32c54.01,-16.07 63.92,73.04 16.3,87.97 -52.75,16.54 -65.62,-73.29 -16.3,-87.97zm13.67 -27.86c-102.79,20.99 -80.53,184.88 20.63,166.58 43.81,-7.92 70.64,-51.06 67.65,-94.36 -3.09,-44.8 -42.31,-81.61 -88.28,-72.23z"/>
   <path class="fil5" d="M408.16 287.54c21.15,-10.35 35.9,24.34 14,32.87 -21.84,8.5 -36.83,-21.69 -14,-32.87zm16.07 -22.26c-58.55,12.82 -45.61,113.17 13.3,99.5 56.61,-13.13 46.87,-112.67 -13.3,-99.5z"/>
   <path class="fil5" d="M645.52 306.47c17.79,-12.81 32.35,15.36 15.56,25.13 -15.75,9.16 -33.79,-12 -15.56,-25.13zm10.03 -21.16c-49.32,14.68 -36.45,104.5 16.3,87.97 47.62,-14.93 37.71,-104.04 -16.3,-87.97z"/>
   <path class="fil4" d="M408.16 287.54c-22.83,11.18 -7.84,41.37 14,32.87 21.9,-8.52 7.15,-43.22 -14,-32.87z"/>
   <path class="fil4" d="M645.52 306.47c-18.23,13.12 -0.19,34.29 15.56,25.13 16.79,-9.77 2.23,-37.93 -15.56,-25.13z"/>
   <path class="fil2 str0" d="M610.45 156.35c0,0 -10.47,-89.75 -66.28,-120.2l3.33 -4.05c0,0 54.18,21.1 70.99,125.76l-8.04 -1.51z"/>
   <path class="fil2" d="M529.46 0c14.01,0 25.37,11.36 25.37,25.37 0,14.01 -11.36,25.37 -25.37,25.37 -14.01,0 -25.37,-11.36 -25.37,-25.37 0,-14.01 11.36,-25.37 25.37,-25.37z"/>
   <path class="fil2" d="M418.59 50.34c0,0 75.16,18.48 116.17,100.64l-9.92 -0.11c0,0 -28,-71.46 -112.79,-97.1l6.55 -3.44z"/>
   <path class="fil2" d="M390.61 14.79c16.11,-1.42 30.4,9.53 31.9,24.46 1.51,14.93 -10.34,28.19 -26.45,29.61 -16.11,1.42 -30.4,-9.53 -31.9,-24.46 -1.51,-14.93 10.34,-28.19 26.45,-29.61z"/>
   <path class="fil6" d="M12.52 287.82c0,0 44.57,8.99 99.38,10 54.8,1.02 125.92,15.18 149.85,81.85 23.93,66.68 22.75,101.44 12.94,156.87 0,0 -108.27,-0.88 -187.42,-90.19 0,0 -47.56,-41.19 -68.69,-137.81 0,0 -4.17,-16 -6.06,-20.72z"/>
   <path class="fil2" d="M586.14 466.77c-1.17,23.7 -13.25,43.79 -31.7,49.26 -24.13,7.15 -50.01,-13.4 -57.82,-45.92 -0.77,-3.19 -1.33,-6.37 -1.7,-9.53 16.44,5.76 57.26,17.48 91.21,6.18z"/>
   <path class="fil2" d="M487.52 458.4c0,0 69.99,29.91 114.69,1.4 1.75,-1.01 1.35,-4.28 -1.65,-3.08 -3,1.21 -39.92,25.29 -111.62,-2.6 -2.09,-0.82 -5.1,2.15 -1.42,4.28z"/>
   <path class="fil7" d="M543.43 487.36c11.54,-0.11 22,3.92 29.68,10.59 -5.04,6.62 -11.49,11.49 -19.04,13.78 -14.1,4.29 -28.82,-1.38 -40,-13.6 7.73,-6.58 18.04,-10.65 29.35,-10.77z"/>
  </g>
 </g>
</svg>
